<?xml version="1.0" encoding="UTF-8" standalone="no"?>
<svg
        version="1.0"
        width="64.000000pt"
        height="48.000000pt"
        viewBox="0 0 64.000000 48.000000"
        preserveAspectRatio="xMidYMid meet"
        id="svg2"
        sodipodi:docname="favicon2.svg"
        xml:space="preserve"
        inkscape:version="1.4.2 (f4327f4, 2025-05-13)"
        xmlns:inkscape="http://www.inkscape.org/namespaces/inkscape"
        xmlns:sodipodi="http://sodipodi.sourceforge.net/DTD/sodipodi-0.dtd"
        xmlns:xlink="http://www.w3.org/1999/xlink"
        xmlns="http://www.w3.org/2000/svg"
><defs
     id="defs2"><inkscape:path-effect
       effect="powerclip"
       message=""
       id="path-effect34"
       is_visible="true"
       lpeversion="1"
       inverse="true"
       flatten="false"
       hide_clip="false" /><inkscape:path-effect
       effect="powerclip"
       message=""
       id="path-effect16"
       is_visible="true"
       lpeversion="1"
       inverse="true"
       flatten="false"
       hide_clip="false" /><linearGradient
       id="linearGradient6"
       inkscape:collect="always"><stop
         style="stop-color:#74716d;stop-opacity:1;"
         offset="0.75327516"
         id="stop6" /><stop
         style="stop-color:#a9a7a3;stop-opacity:1;"
         offset="0.79912663"
         id="stop8" /><stop
         style="stop-color:#6a6c6a;stop-opacity:1;"
         offset="0.95851529"
         id="stop7" /></linearGradient><radialGradient
       inkscape:collect="always"
       xlink:href="#linearGradient6"
       id="radialGradient7"
       cx="40.349987"
       cy="2.9186206"
       fx="40.349987"
       fy="2.9186206"
       r="33.861687"
       gradientTransform="matrix(1,0,0,0.41893079,0,1.6959205)"
       gradientUnits="userSpaceOnUse" /><clipPath
       clipPathUnits="userSpaceOnUse"
       id="clipPath15"><ellipse
         style="display:none;fill:#ff3e3e;fill-opacity:1;stroke:none;stroke-width:0.906277;stroke-linecap:round;stroke-dasharray:none;paint-order:markers stroke fill"
         id="ellipse16"
         cx="40.223816"
         cy="3.4629178"
         rx="22.848423"
         ry="10.243461"
         transform="matrix(0.99887119,-0.04750097,0.09708335,0.99527625,0,0)" /></clipPath><clipPath
       clipPathUnits="userSpaceOnUse"
       id="clipPath33"><path
         id="path34"
         style="display:none;fill:#ff3e3e;stroke-width:1.00047;stroke-linecap:round;paint-order:markers stroke fill"
         d="M 20.459932,-2.9298552 A 10.925427,24.151388 88.953576 0 0 16.193393,3.885876 10.925427,24.151388 88.953576 0 0 31.96431,13.376178 8.7579648,4.5414751 1.9399934 0 0 40.544614,16.973372 8.7579648,4.5414751 1.9399934 0 0 49.14937,13.041474 10.925427,24.151388 88.953576 0 0 64.43233,2.1181848 10.925427,24.151388 88.953576 0 0 39.134539,-7.8949327 10.925427,24.151388 88.953576 0 0 20.459932,-2.9298552 Z" /><path
         id="lpe_path-effect34"
         style="fill:#ff3e3e;stroke-width:1.00047;stroke-linecap:round;paint-order:markers stroke fill"
         class="powerclip"
         d="M 1.4883003,-16.267083 H 79.211674 V 22.104324 H 1.4883003 Z M 20.459932,-2.9298552 A 10.925427,24.151388 88.953576 0 0 16.193393,3.885876 10.925427,24.151388 88.953576 0 0 31.96431,13.376178 8.7579648,4.5414751 1.9399934 0 0 40.544614,16.973372 8.7579648,4.5414751 1.9399934 0 0 49.14937,13.041474 10.925427,24.151388 88.953576 0 0 64.43233,2.1181848 10.925427,24.151388 88.953576 0 0 39.134539,-7.8949327 10.925427,24.151388 88.953576 0 0 20.459932,-2.9298552 Z" /></clipPath></defs><sodipodi:namedview
     id="namedview2"
     pagecolor="#ffffff"
     bordercolor="#000000"
     borderopacity="0.25"
     inkscape:showpageshadow="2"
     inkscape:pageopacity="0.0"
     inkscape:pagecheckerboard="0"
     inkscape:deskcolor="#d1d1d1"
     inkscape:document-units="pt"
     inkscape:zoom="8.9161746"
     inkscape:cx="39.478814"
     inkscape:cy="39.759204"
     inkscape:window-width="1920"
     inkscape:window-height="1009"
     inkscape:window-x="-8"
     inkscape:window-y="-8"
     inkscape:window-maximized="1"
     inkscape:current-layer="layer2" /><g
     inkscape:groupmode="layer"
     id="layer1"
     inkscape:label="Color"><circle
       style="display:inline;fill:#cbb793;stroke:#cbb793;stroke-width:8.49269;stroke-linecap:round;paint-order:markers stroke fill"
       id="path3"
       cx="32.327137"
       cy="24"
       r="10.001798"
       inkscape:label="Planet" /><ellipse
       style="display:inline;fill:#86d6ec;fill-opacity:1;stroke:none;stroke-width:1.6356;stroke-linecap:round;stroke-dasharray:none;paint-order:markers stroke fill"
       id="path4"
       cx="39.320198"
       cy="17.576654"
       rx="4.490818"
       ry="3.1533179"
       transform="rotate(28.216834)"
       inkscape:label="Aurora" /></g><g
     inkscape:groupmode="layer"
     id="layer2"
     inkscape:label="Rings"><ellipse
       style="display:none;fill:url(#radialGradient7);fill-opacity:1;stroke:none;stroke-width:1.01789;stroke-linecap:round;stroke-dasharray:none;paint-order:markers stroke fill"
       id="path5"
       transform="matrix(0.84388455,0.53652478,-0.57256693,0.819858,0,0)"
       inkscape:label="Rings"
       ry="14.185703"
       rx="33.861687"
       cy="2.9186206"
       cx="40.349987" /><ellipse
       style="display:none;fill:#ff3e3e;fill-opacity:1;stroke:none;stroke-width:0.962014;stroke-linecap:round;stroke-dasharray:none;paint-order:markers stroke fill"
       id="path8"
       cx="39.920162"
       cy="4.4663587"
       rx="24.173798"
       ry="10.909433"
       transform="matrix(0.86291886,0.5053425,-0.480708,0.87688073,0,0)" /><path
       style="display:inline;fill:url(#radialGradient7);fill-opacity:1;stroke:none;stroke-width:1.01789;stroke-linecap:round;stroke-dasharray:none;paint-order:markers stroke fill"
       id="ellipse18"
       transform="matrix(0.84388455,0.53652478,-0.57256693,0.819858,0,0)"
       inkscape:label="Rings"
       clip-path="url(#clipPath33)"
       inkscape:path-effect="#path-effect34"
       sodipodi:type="arc"
       sodipodi:cx="40.349987"
       sodipodi:cy="2.9186206"
       sodipodi:rx="33.861687"
       sodipodi:ry="14.185703"
       d="M 74.211674,2.9186206 A 33.861687,14.185703 0 0 1 40.349987,17.104324 33.861687,14.185703 0 0 1 6.4883003,2.9186206 33.861687,14.185703 0 0 1 40.349987,-11.267083 33.861687,14.185703 0 0 1 74.211674,2.9186206 Z" /><g
       id="g23"
       style="display:none"><path
         d="m 34.009277,37.062012 a 24.176275,10.903942 30.768611 0 1 -6.952148,-3.405762 24.176275,10.903942 30.768611 0 1 -7.741699,-5.540039 8.7481461,4.5423069 33.472981 0 0 5.181152,7.552734 8.7481461,4.5423069 33.472981 0 0 9.512695,1.393067 z"
         style="fill:#ff3e3e;stroke-width:0.999997;stroke-linecap:round;paint-order:markers stroke fill"
         id="path21" /><path
         d="m 34.009277,37.062012 a 8.7481461,4.5423069 33.472981 0 0 0.290039,-0.357422 8.7481461,4.5423069 33.472981 0 0 -4.792968,-8.613281 8.7481461,4.5423069 33.472981 0 0 -9.802735,-1.035645 8.7481461,4.5423069 33.472981 0 0 -0.388183,1.060547 24.176275,10.903942 30.768611 0 0 7.741699,5.540039 24.176275,10.903942 30.768611 0 0 6.952148,3.405762 z"
         style="display:inline;fill:#ff3e3e;stroke-width:0.962014;stroke-linecap:round;paint-order:markers stroke fill"
         id="path22" /><path
         d="m 18.943359,8.5751953 a 24.176275,10.903942 30.768611 0 0 -7.502929,3.2988277 24.176275,10.903942 30.768611 0 0 7.875,16.242188 8.7481461,4.5423069 33.472981 0 1 0.388183,-1.060547 8.7481461,4.5423069 33.472981 0 1 9.802735,1.035645 8.7481461,4.5423069 33.472981 0 1 4.792968,8.613281 8.7481461,4.5423069 33.472981 0 1 -0.290039,0.357422 24.176275,10.903942 30.768611 0 0 19.151368,-0.75586 A 24.176275,10.903942 30.768611 0 0 37.54541,14.523926 24.176275,10.903942 30.768611 0 0 18.943359,8.5751953 Z"
         style="display:inline;fill:#ff3e3e;stroke-width:0.962014;stroke-linecap:round;paint-order:markers stroke fill"
         id="path23" /></g><path
       id="path33"
       style="display:none;fill:#ff3e3e;stroke-width:0.999997;stroke-linecap:round;paint-order:markers stroke fill"
       d="m 18.943359,8.5751953 a 24.176275,10.903942 30.768611 0 0 -7.502929,3.2988277 24.176275,10.903942 30.768611 0 0 7.875,16.242188 8.7481461,4.5423069 33.472981 0 0 5.181152,7.552734 8.7481461,4.5423069 33.472981 0 0 9.512695,1.393067 24.176275,10.903942 30.768611 0 0 19.151368,-0.75586 A 24.176275,10.903942 30.768611 0 0 37.54541,14.523926 24.176275,10.903942 30.768611 0 0 18.943359,8.5751953 Z" /></g><g
     transform="matrix(0.1,0,0,-0.1,0,48)"
     fill="#000000"
     stroke="none"
     id="g2"
     inkscape:label="Outline"
     style="opacity:1"><path
       d="M64 461 c-29 -13 -54 -50 -54 -81 1 -111 206 -294 393 -351 90 -28 181 -23 208 10 24 29 24 82 2 129 -22 49 -145 169 -216 211 -31 18 -84 44 -117 58 -66 26 -181 39 -216 24z m12 -32 c-14 -11 -30 -35 -35 -52 l-9 -32 -1 28 c-1 28 37 77 60 77 6 0 0 -9 -15 -21z m160 -3 c147 -39 293 -151 349 -268 31 -64 31 -79 3 -105 -21 -18 -31 -19 -103 -13 -44 5 -102 17 -130 28 l-50 21 35 0 c19 0 55 -4 80 -8 29 -6 56 -5 79 2 31 11 36 17 39 50 4 48 -22 92 -92 152 -71 60 -175 108 -249 113 -72 5 -95 -10 -91 -64 3 -35 38 -104 53 -104 9 0 34 -51 27 -57 -10 -11 -106 100 -122 142 -39 103 31 149 172 111z m-20 -79 c-19 -18 -38 -46 -41 -63 -4 -16 -8 -33 -9 -39 -1 -5 -10 11 -20 36 -13 34 -15 51 -7 72 10 24 15 27 61 27 l51 0 -35 -33z m112 -11 c114 -60 139 -89 122 -142 l-12 -35 -41 47 c-44 50 -123 94 -171 94 l-30 0 29 30 c35 36 43 37 103 6z m-29 -72 c54 -27 121 -88 121 -109 0 -38 -101 -66 -121 -33 -6 9 -9 10 -9 1 0 -20 -17 -15 -23 7 -3 11 -10 20 -17 20 -6 0 -8 -4 -5 -10 3 -5 2 -10 -4 -10 -15 0 -24 21 -13 32 6 6 23 2 48 -11 40 -22 54 -21 35 3 -20 23 -70 41 -83 28 -8 -8 -15 -7 -24 6 -14 18 -19 84 -7 95 13 14 50 6 102 -19z m221 -120 c0 -32 -20 -44 -73 -44 l-48 0 35 34 c22 21 36 43 36 58 0 14 3 28 7 32 9 9 42 -53 43 -80z"
       id="path1" /><path
       d="M591 93 c-1 -7 -11 -21 -23 -33 -12 -11 -17 -20 -11 -20 16 0 46 38 40 52 -4 9 -6 9 -6 1z"
       id="path2" /></g></svg>
