<?xml version="1.0" encoding="UTF-8"?>
<svg width="64pt" height="48pt" version="1.0" viewBox="0 0 64 48" xml:space="preserve"
     xmlns="http://www.w3.org/2000/svg"><defs><radialGradient id="radialGradient7" cx="40.35" cy="2.9186" r="33.862" gradientTransform="matrix(1 0 0 .41893 0 1.6959)" gradientUnits="userSpaceOnUse"><stop stop-color="#74716d" offset=".75328"/><stop stop-color="#a9a7a3" offset=".79913"/><stop stop-color="#6a6c6a" offset=".95852"/></radialGradient><clipPath id="clipPath33"><path d="m20.46-2.9299a10.925 24.151 88.954 0 0-4.2665 6.8157 10.925 24.151 88.954 0 0 15.771 9.4903 8.758 4.5415 1.94 0 0 8.5803 3.5972 8.758 4.5415 1.94 0 0 8.6048-3.9319 10.925 24.151 88.954 0 0 15.283-10.923 10.925 24.151 88.954 0 0-25.298-10.013 10.925 24.151 88.954 0 0-18.675 4.9651z" display="none" fill="#ff3e3e" stroke-linecap="round" stroke-width="1.0005" style="paint-order:markers stroke fill"/><path class="powerclip" d="m1.4883-16.267h77.723v38.371h-77.723zm18.972 13.337a10.925 24.151 88.954 0 0-4.2665 6.8157 10.925 24.151 88.954 0 0 15.771 9.4903 8.758 4.5415 1.94 0 0 8.5803 3.5972 8.758 4.5415 1.94 0 0 8.6048-3.9319 10.925 24.151 88.954 0 0 15.283-10.923 10.925 24.151 88.954 0 0-25.298-10.013 10.925 24.151 88.954 0 0-18.675 4.9651z" fill="#ff3e3e" stroke-linecap="round" stroke-width="1.0005" style="paint-order:markers stroke fill"/></clipPath></defs><circle cx="32.327" cy="24" r="10.002" fill="#cbb793" stroke="#cbb793" stroke-linecap="round" stroke-width="8.4927" style="paint-order:markers stroke fill"/><ellipse transform="rotate(28.217)" cx="39.32" cy="17.577" rx="4.4908" ry="3.1533" fill="#86d6ec" style="paint-order:markers stroke fill"/><g><ellipse transform="matrix(.84388 .53652 -.57257 .81986 0 0)" cx="40.35" cy="2.9186" rx="33.862" ry="14.186" display="none" fill="url(#radialGradient7)" style="paint-order:markers stroke fill"/><ellipse transform="matrix(.86292 .50534 -.48071 .87688 0 0)" cx="39.92" cy="4.4664" rx="24.174" ry="10.909" display="none" fill="#ff3e3e" style="paint-order:markers stroke fill"/><path transform="matrix(.84388 .53652 -.57257 .81986 0 0)" d="m74.212 2.9186a33.862 14.186 0 0 1-33.862 14.186 33.862 14.186 0 0 1-33.862-14.186 33.862 14.186 0 0 1 33.862-14.186 33.862 14.186 0 0 1 33.862 14.186z" clip-path="url(#clipPath33)" fill="url(#radialGradient7)" style="paint-order:markers stroke fill"/></g><g display="none" fill="#ff3e3e" stroke-linecap="round"><path d="m34.009 37.062a24.176 10.904 30.769 0 1-6.9521-3.4058 24.176 10.904 30.769 0 1-7.7417-5.54 8.7481 4.5423 33.473 0 0 5.1812 7.5527 8.7481 4.5423 33.473 0 0 9.5127 1.3931z" style="paint-order:markers stroke fill"/><path d="m34.009 37.062a8.7481 4.5423 33.473 0 0 0.29004-0.35742 8.7481 4.5423 33.473 0 0-4.793-8.6133 8.7481 4.5423 33.473 0 0-9.8027-1.0356 8.7481 4.5423 33.473 0 0-0.38818 1.0605 24.176 10.904 30.769 0 0 7.7417 5.54 24.176 10.904 30.769 0 0 6.9521 3.4058z" display="inline" stroke-width=".96201" style="paint-order:markers stroke fill"/><path d="m18.943 8.5752a24.176 10.904 30.769 0 0-7.5029 3.2988 24.176 10.904 30.769 0 0 7.875 16.242 8.7481 4.5423 33.473 0 1 0.38818-1.0605 8.7481 4.5423 33.473 0 1 9.8027 1.0356 8.7481 4.5423 33.473 0 1 4.793 8.6133 8.7481 4.5423 33.473 0 1-0.29004 0.35742 24.176 10.904 30.769 0 0 19.151-0.75586 24.176 10.904 30.769 0 0-15.615-21.782 24.176 10.904 30.769 0 0-18.602-5.9487z" display="inline" stroke-width=".96201" style="paint-order:markers stroke fill"/></g><path d="m18.943 8.5752a24.176 10.904 30.769 0 0-7.5029 3.2988 24.176 10.904 30.769 0 0 7.875 16.242 8.7481 4.5423 33.473 0 0 5.1812 7.5527 8.7481 4.5423 33.473 0 0 9.5127 1.3931 24.176 10.904 30.769 0 0 19.151-0.75586 24.176 10.904 30.769 0 0-15.615-21.782 24.176 10.904 30.769 0 0-18.602-5.9487z" display="none" fill="#ff3e3e" stroke-linecap="round" style="paint-order:markers stroke fill"/><g transform="matrix(.1 0 0 -.1 0 48)"><path d="m64 461c-29-13-54-50-54-81 1-111 206-294 393-351 90-28 181-23 208 10 24 29 24 82 2 129-22 49-145 169-216 211-31 18-84 44-117 58-66 26-181 39-216 24zm12-32c-14-11-30-35-35-52l-9-32-1 28c-1 28 37 77 60 77 6 0 0-9-15-21zm160-3c147-39 293-151 349-268 31-64 31-79 3-105-21-18-31-19-103-13-44 5-102 17-130 28l-50 21h35c19 0 55-4 80-8 29-6 56-5 79 2 31 11 36 17 39 50 4 48-22 92-92 152-71 60-175 108-249 113-72 5-95-10-91-64 3-35 38-104 53-104 9 0 34-51 27-57-10-11-106 100-122 142-39 103 31 149 172 111zm-20-79c-19-18-38-46-41-63-4-16-8-33-9-39-1-5-10 11-20 36-13 34-15 51-7 72 10 24 15 27 61 27h51l-35-33zm112-11c114-60 139-89 122-142l-12-35-41 47c-44 50-123 94-171 94h-30l29 30c35 36 43 37 103 6zm-29-72c54-27 121-88 121-109 0-38-101-66-121-33-6 9-9 10-9 1 0-20-17-15-23 7-3 11-10 20-17 20-6 0-8-4-5-10 3-5 2-10-4-10-15 0-24 21-13 32 6 6 23 2 48-11 40-22 54-21 35 3-20 23-70 41-83 28-8-8-15-7-24 6-14 18-19 84-7 95 13 14 50 6 102-19zm221-120c0-32-20-44-73-44h-48l35 34c22 21 36 43 36 58 0 14 3 28 7 32 9 9 42-53 43-80z"/><path d="m591 93c-1-7-11-21-23-33-12-11-17-20-11-20 16 0 46 38 40 52-4 9-6 9-6 1z"/></g></svg>
