 <svg version="1.0" xmlns="http://www.w3.org/2000/svg"  width="64.000000pt" height="48.000000pt" viewBox="0 0 64.000000 48.000000"  preserveAspectRatio="xMidYMid meet">  <g transform="translate(0.000000,48.000000) scale(0.100000,-0.100000)" fill="#000000" stroke="none"> <path d="M64 461 c-29 -13 -54 -50 -54 -81 1 -111 206 -294 393 -351 90 -28 181 -23 208 10 24 29 24 82 2 129 -22 49 -145 169 -216 211 -31 18 -84 44 -117 58 -66 26 -181 39 -216 24z m12 -32 c-14 -11 -30 -35 -35 -52 l-9 -32 -1 28 c-1 28 37 77 60 77 6 0 0 -9 -15 -21z m160 -3 c147 -39 293 -151 349 -268 31 -64 31 -79 3 -105 -21 -18 -31 -19 -103 -13 -44 5 -102 17 -130 28 l-50 21 35 0 c19 0 55 -4 80 -8 29 -6 56 -5 79 2 31 11 36 17 39 50 4 48 -22 92 -92 152 -71 60 -175 108 -249 113 -72 5 -95 -10 -91 -64 3 -35 38 -104 53 -104 9 0 34 -51 27 -57 -10 -11 -106 100 -122 142 -39 103 31 149 172 111z m-20 -79 c-19 -18 -38 -46 -41 -63 -4 -16 -8 -33 -9 -39 -1 -5 -10 11 -20 36 -13 34 -15 51 -7 72 10 24 15 27 61 27 l51 0 -35 -33z m112 -11 c114 -60 139 -89 122 -142 l-12 -35 -41 47 c-44 50 -123 94 -171 94 l-30 0 29 30 c35 36 43 37 103 6z m-29 -72 c54 -27 121 -88 121 -109 0 -38 -101 -66 -121 -33 -6 9 -9 10 -9 1 0 -20 -17 -15 -23 7 -3 11 -10 20 -17 20 -6 0 -8 -4 -5 -10 3 -5 2 -10 -4 -10 -15 0 -24 21 -13 32 6 6 23 2 48 -11 40 -22 54 -21 35 3 -20 23 -70 41 -83 28 -8 -8 -15 -7 -24 6 -14 18 -19 84 -7 95 13 14 50 6 102 -19z m221 -120 c0 -32 -20 -44 -73 -44 l-48 0 35 34 c22 21 36 43 36 58 0 14 3 28 7 32 9 9 42 -53 43 -80z"/> <path d="M591 93 c-1 -7 -11 -21 -23 -33 -12 -11 -17 -20 -11 -20 16 0 46 38 40 52 -4 9 -6 9 -6 1z"/> </g> </svg> 